<svg width="46" height="54" viewBox="0 0 46 54" fill="none" xmlns="http://www.w3.org/2000/svg">
<circle cx="34" cy="13" r="12" fill="#FFC849"/>
<circle cx="34" cy="41" r="12" fill="#FF0000"/>
<path d="M6.12914 5.23849C12.8711 -0.645023 19 0.0228163 19 0.0228163V26.4845H0.000112164C0.000112164 26.4845 -1.48038e-05 29.4263 1.43465e-06 21.2547C1.76731e-05 13.0832 2.77876 8.16228 6.12914 5.23849Z" fill="#004AAD"/>
<path d="M12.8709 48.7981C6.12892 54.7914 3.68463e-07 53.9609 3.68463e-07 53.9609L3.68463e-07 26.2281L19 26.2281C19 26.2281 19 24.1592 19 32.4832C19 40.8071 16.2212 45.8198 12.8709 48.7981Z" fill="#004AAD"/>
</svg>
