<svg width="13" height="25" viewBox="0 0 13 25" fill="#B8B8B8" xmlns="http://www.w3.org/2000/svg">
<g clip-path="url(#clip0_112_130)">
<path d="M12.9991 7.44502L6.49858 3.72288L0 7.44502V3.72288L6.49953 0.000732422L13 3.72288V7.44502H12.9991Z" fill="#B8B8B8"/>
<path d="M0 10.5706H3.40487V18.7755C3.40487 20.8954 5.0007 21.9289 6.49953 21.9289C8.01127 21.9289 9.59544 20.8679 9.59544 18.7471V10.5706H13V18.9712C13 20.9238 12.3811 22.4308 11.1431 23.464C9.9044 24.4966 8.35739 24.9994 6.47087 24.9994C4.58624 24.9994 3.03828 24.4975 1.8292 23.464C0.618868 22.4317 0 20.9807 0 19.0546V10.5706Z" fill="#B8B8B8"/>
</g>
<defs>
<clipPath id="clip0_112_130">
<rect width="13" height="25" fill="white"/>
</clipPath>
</defs>
</svg>
